<svg width="420" height="331" viewBox="0 0 420 331" fill="none" xmlns="http://www.w3.org/2000/svg">
<path d="M218.38 273.912C278.223 273.912 326.736 225.374 326.736 165.5C326.736 105.626 278.223 57.0879 218.38 57.0879C158.536 57.0879 110.023 105.626 110.023 165.5C110.023 225.374 158.536 273.912 218.38 273.912Z" fill="#DBE8EC"/>
<path d="M364.808 142.81V131.103C364.808 128.87 363.921 126.729 362.344 125.151C360.766 123.572 358.626 122.685 356.394 122.685H326.698C324.466 122.685 322.326 121.798 320.748 120.22C319.17 118.641 318.284 116.5 318.284 114.267V102.56C318.284 100.327 319.17 98.186 320.748 96.6074C322.326 95.0287 324.466 94.1418 326.698 94.1418H327.635C329.867 94.1418 332.007 93.255 333.584 91.6763C335.162 90.0977 336.049 87.9566 336.049 85.724V74.0164C336.049 71.7839 335.162 69.6428 333.584 68.0641C332.007 66.4855 329.867 65.5986 327.635 65.5986H111.872C109.641 65.5986 107.501 66.4855 105.923 68.0641C104.345 69.6428 103.459 71.7839 103.459 74.0164V85.724C103.459 87.9566 104.345 90.0977 105.923 91.6763C107.501 93.255 109.641 94.1418 111.872 94.1418C114.103 94.1418 116.243 95.0287 117.821 96.6074C119.399 98.186 120.285 100.327 120.285 102.56V114.267C120.285 116.5 119.399 118.641 117.821 120.22C116.243 121.798 114.103 122.685 111.872 122.685H79.3363C77.1049 122.685 74.9649 123.572 73.3871 125.151C71.8093 126.729 70.9228 128.87 70.9228 131.103V142.81C70.9228 145.043 71.8093 147.184 73.3871 148.763C74.9649 150.341 77.1049 151.228 79.3363 151.228H92.1028C93.2077 151.228 94.3018 151.446 95.3225 151.869C96.3433 152.292 97.2708 152.912 98.0521 153.694C98.8333 154.475 99.4531 155.403 99.8759 156.425C100.299 157.446 100.516 158.541 100.516 159.646V171.354C100.516 173.586 99.6299 175.727 98.0521 177.306C96.4743 178.885 94.3343 179.771 92.1029 179.771H92.072C89.8406 179.771 87.7006 180.658 86.1228 182.237C84.545 183.816 83.6585 185.957 83.6585 188.189V199.897C83.6585 202.129 84.545 204.27 86.1228 205.849C87.7006 207.428 89.8406 208.315 92.072 208.315H93.9191C95.0239 208.315 96.118 208.532 97.1388 208.955C98.1595 209.378 99.087 209.998 99.8683 210.78C100.65 211.562 101.269 212.49 101.692 213.511C102.115 214.532 102.333 215.627 102.333 216.732V228.44C102.333 230.673 101.446 232.814 99.8683 234.392C98.2904 235.971 96.1504 236.858 93.919 236.858H63.6057C61.3743 236.858 59.2343 237.745 57.6565 239.323C56.0787 240.902 55.1923 243.043 55.1923 245.276V256.983C55.1923 259.216 56.0787 261.357 57.6565 262.936C59.2344 264.514 61.3744 265.401 63.6057 265.401H332.152C334.384 265.401 336.524 264.514 338.101 262.936C339.679 261.357 340.566 259.216 340.566 256.983V245.276C340.566 243.043 339.679 240.902 338.101 239.323C336.524 237.745 334.384 236.858 332.152 236.858H324.857C322.626 236.858 320.486 235.971 318.908 234.392C317.33 232.814 316.444 230.673 316.444 228.44V216.732C316.444 214.5 317.33 212.359 318.908 210.78C320.486 209.202 322.626 208.315 324.857 208.315H342.058C344.289 208.315 346.429 207.428 348.007 205.849C349.585 204.271 350.471 202.129 350.471 199.897V188.189C350.471 185.957 349.585 183.816 348.007 182.237C346.429 180.658 344.289 179.771 342.058 179.771H336.84C334.609 179.771 332.469 178.885 330.891 177.306C329.313 175.727 328.427 173.586 328.427 171.354V159.646C328.427 157.413 329.313 155.272 330.891 153.694C332.469 152.115 334.609 151.228 336.84 151.228H356.394C358.626 151.228 360.766 150.341 362.344 148.763C363.921 147.184 364.808 145.043 364.808 142.81Z" fill="#DBE8EC"/>
<path d="M248.624 59.5796H269.496" stroke="#B9D4DB" stroke-width="3" stroke-miterlimit="10" stroke-linecap="round"/>
<path d="M248.624 65.5986H269.496" stroke="#B9D4DB" stroke-width="3" stroke-miterlimit="10" stroke-linecap="round"/>
<path d="M248.624 71.6177H269.496" stroke="#B9D4DB" stroke-width="3" stroke-miterlimit="10" stroke-linecap="round"/>
<path d="M76.9915 187.421H97.864" stroke="#B9D4DB" stroke-width="3" stroke-miterlimit="10" stroke-linecap="round"/>
<path d="M76.9915 193.44H97.864" stroke="#B9D4DB" stroke-width="3" stroke-miterlimit="10" stroke-linecap="round"/>
<path d="M76.9915 199.459H97.864" stroke="#B9D4DB" stroke-width="3" stroke-miterlimit="10" stroke-linecap="round"/>
<path d="M326.736 242.584H347.609" stroke="#B9D4DB" stroke-width="3" stroke-miterlimit="10" stroke-linecap="round"/>
<path d="M326.736 248.604H347.609" stroke="#B9D4DB" stroke-width="3" stroke-miterlimit="10" stroke-linecap="round"/>
<path d="M326.736 254.622H347.609" stroke="#B9D4DB" stroke-width="3" stroke-miterlimit="10" stroke-linecap="round"/>
<path d="M353.304 139.741C358.231 139.741 362.226 135.744 362.226 130.814C362.226 125.885 358.231 121.888 353.304 121.888C348.377 121.888 344.382 125.885 344.382 130.814C344.382 135.744 348.377 139.741 353.304 139.741Z" fill="#B9D4DB"/>
<path d="M329.761 141.885C332.315 141.885 334.387 139.813 334.387 137.256C334.387 134.7 332.315 132.628 329.761 132.628C327.206 132.628 325.135 134.7 325.135 137.256C325.135 139.813 327.206 141.885 329.761 141.885Z" fill="#B9D4DB"/>
<path d="M341.507 115.585C345.157 115.585 348.116 112.625 348.116 108.973C348.116 105.321 345.157 102.361 341.507 102.361C337.857 102.361 334.898 105.321 334.898 108.973C334.898 112.625 337.857 115.585 341.507 115.585Z" fill="#B9D4DB"/>
<path d="M106.215 262.363C112.077 262.363 116.83 257.608 116.83 251.743C116.83 245.877 112.077 241.122 106.215 241.122C100.352 241.122 95.5999 245.877 95.5999 251.743C95.5999 257.608 100.352 262.363 106.215 262.363Z" fill="#B9D4DB"/>
<path d="M85.2255 262.573C88.2791 262.573 90.7546 260.096 90.7546 257.041C90.7546 253.986 88.2791 251.509 85.2255 251.509C82.1718 251.509 79.6963 253.986 79.6963 257.041C79.6963 260.096 82.1718 262.573 85.2255 262.573Z" fill="#B9D4DB"/>
<path d="M78.7321 241.867C80.4935 241.867 81.9215 240.439 81.9215 238.676C81.9215 236.914 80.4935 235.485 78.7321 235.485C76.9707 235.485 75.5427 236.914 75.5427 238.676C75.5427 240.439 76.9707 241.867 78.7321 241.867Z" fill="#B9D4DB"/>
<path d="M94.5459 238.153C98.7685 238.153 102.192 234.728 102.192 230.503C102.192 226.278 98.7685 222.854 94.5459 222.854C90.3234 222.854 86.9003 226.278 86.9003 230.503C86.9003 234.728 90.3234 238.153 94.5459 238.153Z" fill="#B9D4DB"/>
<path d="M161.816 98.195C167.679 98.195 172.431 93.44 172.431 87.5745C172.431 81.709 167.679 76.9541 161.816 76.9541C155.954 76.9541 151.201 81.709 151.201 87.5745C151.201 93.44 155.954 98.195 161.816 98.195Z" fill="#B9D4DB"/>
<path d="M162.247 71.4527C165.301 71.4527 167.776 68.9759 167.776 65.9207C167.776 62.8654 165.301 60.3887 162.247 60.3887C159.193 60.3887 156.718 62.8654 156.718 65.9207C156.718 68.9759 159.193 71.4527 162.247 71.4527Z" fill="#B9D4DB"/>
<path d="M199.074 73.9406C201.717 73.9406 203.86 71.797 203.86 69.1527C203.86 66.5084 201.717 64.3647 199.074 64.3647C196.431 64.3647 194.289 66.5084 194.289 69.1527C194.289 71.797 196.431 73.9406 199.074 73.9406Z" fill="#B9D4DB"/>
<path d="M181.664 67.6911C183.426 67.6911 184.854 66.2624 184.854 64.5001C184.854 62.7377 183.426 61.3091 181.664 61.3091C179.903 61.3091 178.475 62.7377 178.475 64.5001C178.475 66.2624 179.903 67.6911 181.664 67.6911Z" fill="#B9D4DB"/>
<path d="M185.371 89.5677C189.593 89.5677 193.016 86.1429 193.016 81.9181C193.016 77.6934 189.593 74.2686 185.371 74.2686C181.148 74.2686 177.725 77.6934 177.725 81.9181C177.725 86.1429 181.148 89.5677 185.371 89.5677Z" fill="#B9D4DB"/>
<path d="M312.715 188.49L242.148 226.52V140.254L312.715 118.213V188.49Z" fill="#E06714"/>
<path d="M242.148 140.254L158.845 131.823L141.773 106.622C141.575 106.331 141.461 105.991 141.442 105.639C141.423 105.287 141.5 104.937 141.665 104.626C141.83 104.314 142.077 104.054 142.378 103.872C142.68 103.691 143.025 103.595 143.378 103.595H221.85C222.204 103.595 222.551 103.692 222.854 103.876C223.157 104.059 223.404 104.323 223.568 104.637L242.148 140.254Z" fill="#F9AE2B"/>
<path d="M158.846 218.089L129.753 212.033C129.317 211.942 128.925 211.703 128.644 211.358C128.363 211.012 128.209 210.58 128.209 210.134V127.83C128.209 127.541 128.274 127.257 128.397 126.997C128.521 126.736 128.701 126.507 128.925 126.325C129.148 126.143 129.409 126.013 129.689 125.945C129.969 125.877 130.261 125.872 130.543 125.931L158.846 131.823V218.089Z" fill="#F9AE2B"/>
<path d="M270.234 235.875L242.148 226.52V140.254L271.458 150.017C271.844 150.145 272.18 150.392 272.418 150.723C272.656 151.053 272.784 151.45 272.784 151.857V234.035C272.784 234.342 272.711 234.645 272.571 234.919C272.432 235.192 272.229 235.428 271.98 235.608C271.73 235.788 271.442 235.906 271.139 235.952C270.835 235.999 270.525 235.972 270.234 235.875Z" fill="#F9AE2B"/>
<path d="M242.148 226.52L158.845 218.089V131.822L242.148 140.254V226.52Z" fill="#409CB5"/>
<path d="M220.965 249.602L135.968 246.209L158.846 218.089L242.148 226.52L222.5 248.942C222.31 249.16 222.073 249.332 221.807 249.446C221.542 249.56 221.254 249.613 220.965 249.602Z" fill="#F9AE2B"/>
<path d="M242.148 140.254L312.715 118.213L226.459 110.18L242.148 140.254Z" fill="#EE781D"/>
<path d="M158.845 218.089L242.148 179.171V140.254L158.845 131.822V218.089Z" fill="#25788E"/>
<path d="M163.84 189.978C163.84 189.978 172.941 185.994 175.359 188.839C177.776 191.685 183.18 192.965 183.18 192.965L187.872 184.998L200.67 190.974L207.638 200.506L203.088 211.746C203.088 211.746 193.845 211.603 189.437 213.453C185.028 215.302 173.51 215.445 173.51 215.445L168.249 205.343C168.249 205.343 161.565 195.526 163.84 189.978Z" fill="#DBE8EC"/>
<path d="M183.18 192.965C184.055 193.741 184.896 194.546 185.719 195.365C186.55 196.178 187.35 197.017 188.153 197.853C188.939 198.704 189.745 199.537 190.507 200.408C191.276 201.273 192.058 202.126 192.801 203.013L191.163 203.824C190.791 202.277 190.425 200.729 190.096 199.172C189.76 197.618 189.473 196.052 189.172 194.489C188.625 191.351 188.114 188.205 187.872 184.998C189.033 187.997 189.925 191.057 190.78 194.125C191.18 195.666 191.594 197.203 191.96 198.751C192.332 200.297 192.667 201.853 192.997 203.409L193 203.422C193.043 203.628 193.017 203.842 192.924 204.03C192.832 204.219 192.68 204.371 192.491 204.463C192.302 204.555 192.088 204.581 191.883 204.537C191.678 204.492 191.493 204.381 191.359 204.22C190.618 203.331 189.917 202.409 189.202 201.499C188.481 200.595 187.804 199.653 187.106 198.729C186.426 197.79 185.742 196.854 185.09 195.891C184.43 194.935 183.788 193.965 183.18 192.965Z" fill="#BAD5DB"/>
<path d="M200.67 190.974C200.127 192.145 199.517 193.27 198.908 194.396C198.283 195.512 197.654 196.625 196.991 197.714C196.347 198.816 195.654 199.886 194.978 200.966C194.297 202.043 193.577 203.094 192.878 204.159L191.891 202.669C193.186 202.403 194.486 202.162 195.788 201.931C197.096 201.726 198.395 201.483 199.709 201.311C201.019 201.116 202.335 200.958 203.654 200.809C204.977 200.684 206.298 200.549 207.638 200.506C206.385 200.981 205.113 201.365 203.843 201.758C202.569 202.128 201.293 202.488 200.009 202.812C198.73 203.158 197.436 203.433 196.151 203.747C194.86 204.034 193.567 204.311 192.269 204.563L192.249 204.567C192.061 204.604 191.867 204.583 191.69 204.509C191.514 204.434 191.365 204.308 191.261 204.147C191.157 203.986 191.103 203.798 191.107 203.607C191.111 203.416 191.172 203.23 191.282 203.073C192.015 202.032 192.727 200.975 193.477 199.945C194.233 198.919 194.971 197.881 195.759 196.876C196.527 195.858 197.33 194.864 198.137 193.872C198.96 192.892 199.781 191.91 200.67 190.974Z" fill="#BAD5DB"/>
<path d="M203.088 211.745C202.038 211.248 201.045 210.673 200.046 210.106C199.061 209.521 198.083 208.925 197.126 208.301C195.2 207.07 193.336 205.755 191.506 204.394L192.906 204.117C191.8 205.921 190.654 207.7 189.424 209.429C188.822 210.301 188.183 211.151 187.541 211.999C186.884 212.837 186.227 213.676 185.503 214.474C185.875 213.463 186.314 212.492 186.753 211.521C187.208 210.559 187.665 209.599 188.159 208.662C189.122 206.771 190.167 204.931 191.254 203.115C191.318 203.007 191.404 202.912 191.505 202.837C191.607 202.762 191.722 202.707 191.844 202.676C191.967 202.646 192.094 202.639 192.219 202.658C192.344 202.676 192.464 202.719 192.572 202.784L192.645 202.832L192.654 202.839C194.493 204.187 196.298 205.582 198.041 207.061C198.919 207.792 199.776 208.551 200.625 209.321C201.461 210.108 202.303 210.888 203.088 211.745Z" fill="#BAD5DB"/>
<path d="M163.84 189.978C168.753 191.823 173.545 193.92 178.319 196.052C180.696 197.141 183.077 198.219 185.432 199.353C187.799 200.461 190.144 201.615 192.488 202.771L192.495 202.775C192.644 202.848 192.771 202.96 192.863 203.099C192.954 203.238 193.007 203.399 193.016 203.565C193.026 203.732 192.99 203.897 192.914 204.045C192.838 204.193 192.724 204.319 192.584 204.408C191.036 205.393 189.456 206.328 187.892 207.287C186.33 208.251 184.735 209.162 183.158 210.102C181.566 211.017 179.981 211.944 178.37 212.83C176.767 213.728 175.147 214.599 173.51 215.445C174.967 214.316 176.442 213.217 177.935 212.145C179.419 211.06 180.928 210.015 182.431 208.959C183.95 207.928 185.45 206.867 186.983 205.86C188.514 204.848 190.029 203.811 191.576 202.825L191.672 204.461C189.309 203.344 186.948 202.225 184.608 201.06C182.256 199.921 179.931 198.726 177.601 197.542C172.962 195.128 168.341 192.678 163.84 189.978Z" fill="#BAD5DB"/>
<path d="M167.667 204.435C169.329 203.807 170.926 203.022 172.439 202.092C173.847 201.26 175.02 200.083 175.846 198.672C176.562 197.227 176.82 195.598 176.585 194.003C176.343 192.246 175.933 190.517 175.359 188.84C176.636 190.229 177.568 191.898 178.081 193.714C178.668 195.666 178.479 197.769 177.555 199.585C176.559 201.326 175.007 202.682 173.148 203.436C171.423 204.187 169.547 204.529 167.667 204.435Z" fill="#BAD5DB"/>
<path d="M182.202 198.846C182.097 200.171 181.869 201.485 181.521 202.768C181.19 204.031 180.791 205.275 180.325 206.494C179.863 207.715 179.334 208.91 178.741 210.073C178.147 211.263 177.443 212.394 176.638 213.453C176.741 212.127 176.968 210.813 177.317 209.529C177.647 208.267 178.047 207.023 178.514 205.804C178.978 204.584 179.508 203.39 180.101 202.227C180.695 201.037 181.399 199.905 182.202 198.846Z" fill="#BAD5DB"/>
<path d="M163.368 236.881C163.368 236.881 156.435 243.999 153.125 242.273C149.815 240.548 144.327 241.396 144.327 241.396L142.977 250.545L128.872 249.829L118.83 243.622L118.817 231.495C118.817 231.495 127.434 228.146 130.822 224.772C134.21 221.398 144.828 216.929 144.828 216.929L153.503 224.306C153.503 224.306 163.388 230.884 163.368 236.881Z" fill="#C0D8DD"/>
<path d="M144.327 241.397C142.178 240.512 140.078 239.535 137.987 238.541C136.948 238.032 135.9 237.538 134.871 237.011C133.839 236.489 132.801 235.977 131.78 235.435L132.588 234.523C134.438 237.111 136.224 239.743 137.976 242.399C139.707 245.07 141.417 247.755 142.977 250.545C140.902 248.114 138.978 245.578 137.075 243.027C135.192 240.462 133.344 237.873 131.56 235.24L131.555 235.233C131.476 235.117 131.439 234.978 131.448 234.838C131.458 234.698 131.514 234.566 131.608 234.462C131.701 234.358 131.827 234.288 131.965 234.263C132.103 234.239 132.245 234.262 132.368 234.327C133.389 234.871 134.393 235.445 135.403 236.009C136.416 236.568 137.411 237.16 138.414 237.737C140.407 238.915 142.392 240.11 144.327 241.397Z" fill="#9FC6CC"/>
<path d="M128.872 249.829C129.149 247.283 129.548 244.763 129.987 242.251C130.42 239.738 130.924 237.24 131.445 234.746L132.428 235.419L129.103 237.582C127.979 238.279 126.869 238.998 125.733 239.678C124.605 240.369 123.464 241.041 122.319 241.706C121.165 242.359 120.015 243.016 118.83 243.622C119.853 242.771 120.91 241.972 121.964 241.168C123.026 240.377 124.092 239.591 125.171 238.826C126.243 238.048 127.34 237.311 128.423 236.551L131.72 234.344C131.826 234.273 131.952 234.235 132.08 234.235C132.208 234.236 132.333 234.275 132.439 234.347C132.544 234.42 132.626 234.522 132.673 234.641C132.721 234.76 132.731 234.891 132.703 235.016C132.157 237.505 131.593 239.99 130.959 242.459C130.331 244.931 129.662 247.393 128.872 249.829Z" fill="#9FC6CC"/>
<path d="M118.817 231.495C119.959 231.633 121.085 231.833 122.212 232.027C123.336 232.234 124.457 232.452 125.573 232.69C127.806 233.159 130.024 233.691 132.233 234.259L131.44 234.779C131.622 233.737 131.783 232.691 131.982 231.652C132.179 230.612 132.368 229.571 132.591 228.535C133.022 226.461 133.491 224.393 134.082 222.345C134.004 224.475 133.804 226.586 133.565 228.691C133.453 229.744 133.308 230.793 133.17 231.842C133.034 232.892 132.861 233.936 132.708 234.983C132.684 235.149 132.594 235.299 132.459 235.4C132.325 235.5 132.155 235.543 131.989 235.519L131.925 235.506L131.915 235.503C129.705 234.942 127.504 234.346 125.319 233.686C124.225 233.361 123.137 233.013 122.051 232.657C120.969 232.286 119.885 231.922 118.817 231.495Z" fill="#9FC6CC"/>
<path d="M163.368 236.881C160.75 236.873 158.136 236.8 155.522 236.734C152.908 236.657 150.297 236.546 147.686 236.431C142.465 236.18 137.248 235.871 132.034 235.505L132.03 235.505C131.919 235.497 131.812 235.46 131.721 235.397C131.629 235.334 131.556 235.248 131.508 235.148C131.461 235.047 131.441 234.936 131.451 234.825C131.461 234.715 131.5 234.609 131.564 234.518C132.627 233.022 133.723 231.55 134.803 230.066C135.88 228.58 136.991 227.118 138.083 225.643C139.193 224.18 140.288 222.708 141.423 221.263C142.555 219.816 143.668 218.355 144.828 216.929C143.863 218.494 142.85 220.026 141.856 221.571C140.865 223.118 139.835 224.637 138.819 226.166C137.785 227.683 136.771 229.214 135.722 230.72C134.676 232.227 133.646 233.747 132.584 235.243L132.114 234.256C137.332 234.551 142.546 234.909 147.756 235.331C150.361 235.549 152.965 235.771 155.567 236.028C158.168 236.295 160.77 236.555 163.368 236.881Z" fill="#9FC6CC"/>
<path d="M154.383 224.93C152.997 226.05 151.744 227.326 150.647 228.732C149.581 230.051 148.892 231.635 148.653 233.315C148.563 234.135 148.63 234.964 148.852 235.758C149.065 236.58 149.394 237.366 149.83 238.093C150.763 239.61 151.869 241.013 153.125 242.274C151.503 241.371 150.092 240.133 148.985 238.643C147.786 237.087 147.209 235.139 147.368 233.18C147.635 231.256 148.516 229.469 149.878 228.085C151.143 226.73 152.678 225.655 154.383 224.93Z" fill="#9FC6CC"/>
<path d="M143.021 235.581C142.741 234.297 142.545 232.995 142.434 231.685C142.311 230.385 142.232 229.084 142.205 227.781C142.173 226.479 142.196 225.176 142.261 223.871C142.315 222.557 142.455 221.249 142.68 219.953C142.962 221.237 143.159 222.539 143.269 223.849C143.392 225.149 143.471 226.451 143.496 227.753C143.526 229.055 143.504 230.359 143.438 231.663C143.384 232.977 143.245 234.286 143.021 235.581Z" fill="#9FC6CC"/>
</svg>
