<svg width="420" height="331" viewBox="0 0 420 331" fill="none" xmlns="http://www.w3.org/2000/svg">
<path d="M364.808 146.218V134.51C364.808 132.278 363.921 130.136 362.343 128.558C360.766 126.979 358.626 126.092 356.394 126.092H326.697C324.466 126.092 322.326 125.205 320.748 123.627C319.17 122.048 318.284 119.907 318.284 117.674V105.967C318.284 103.734 319.17 101.593 320.748 100.015C322.326 98.4359 324.466 97.5491 326.697 97.5491H327.635C329.866 97.5491 332.006 96.6622 333.584 95.0836C335.162 93.5049 336.049 91.3638 336.049 89.1313V77.4237C336.049 76.3182 335.831 75.2236 335.408 74.2023C334.985 73.181 334.366 72.253 333.584 71.4714C332.803 70.6897 331.876 70.0697 330.855 69.6466C329.834 69.2236 328.74 69.0059 327.635 69.0059H111.872C109.64 69.0059 107.5 69.8927 105.923 71.4714C104.345 73.05 103.458 75.1911 103.458 77.4237V89.1313C103.458 91.3638 104.345 93.5049 105.923 95.0835C107.5 96.6622 109.64 97.5491 111.872 97.5491C114.103 97.5491 116.243 98.4359 117.821 100.015C119.399 101.593 120.285 103.734 120.285 105.967V117.674C120.285 119.907 119.399 122.048 117.821 123.627C116.243 125.205 114.103 126.092 111.872 126.092H79.3362C77.1048 126.092 74.9648 126.979 73.387 128.558C71.8091 130.136 70.9227 132.278 70.9227 134.51V146.218C70.9227 148.45 71.8091 150.591 73.387 152.17C74.9648 153.749 77.1048 154.635 79.3362 154.635H92.1027C93.2076 154.635 94.3016 154.853 95.3224 155.276C96.3432 155.699 97.2707 156.319 98.052 157.101C98.8332 157.883 99.453 158.811 99.8758 159.832C100.299 160.853 100.516 161.948 100.516 163.053V174.761C100.516 176.993 99.6298 179.135 98.052 180.713C96.4741 182.292 94.3341 183.179 92.1028 183.179H92.0719C89.8405 183.179 87.7005 184.066 86.1227 185.644C84.5448 187.223 83.6584 189.364 83.6584 191.597V203.304C83.6584 205.537 84.5448 207.678 86.1227 209.256C87.7005 210.835 89.8405 211.722 92.0719 211.722H93.9189C95.0238 211.722 96.1179 211.94 97.1386 212.363C98.1594 212.786 99.0869 213.406 99.8682 214.187C100.649 214.969 101.269 215.897 101.692 216.918C102.115 217.94 102.332 219.034 102.332 220.14V231.847C102.332 234.08 101.446 236.221 99.8681 237.8C98.2903 239.378 96.1503 240.265 93.9189 240.265H63.6056C61.3742 240.265 59.2342 241.152 57.6564 242.731C56.0786 244.309 55.1921 246.45 55.1921 248.683V260.391C55.1921 262.623 56.0786 264.764 57.6564 266.343C59.2342 267.921 61.3742 268.808 63.6056 268.808H332.152C334.383 268.808 336.523 267.921 338.101 266.343C339.679 264.764 340.566 262.623 340.566 260.391V248.683C340.566 246.45 339.679 244.309 338.101 242.731C336.523 241.152 334.383 240.265 332.152 240.265H324.857C322.626 240.265 320.486 239.378 318.908 237.8C317.33 236.221 316.444 234.08 316.444 231.847V220.14C316.444 217.907 317.33 215.766 318.908 214.187C320.486 212.609 322.626 211.722 324.857 211.722H342.058C344.289 211.722 346.429 210.835 348.007 209.256C349.585 207.678 350.471 205.537 350.471 203.304V191.597C350.471 189.364 349.585 187.223 348.007 185.644C346.429 184.066 344.289 183.179 342.058 183.179H336.84C334.609 183.179 332.469 182.292 330.891 180.713C329.313 179.135 328.426 176.994 328.426 174.761V163.053C328.426 160.821 329.313 158.68 330.891 157.101C332.469 155.522 334.609 154.635 336.84 154.635H356.394C358.626 154.635 360.766 153.749 362.343 152.17C363.921 150.591 364.808 148.45 364.808 146.218Z" fill="#DBE8EC"/>
<path d="M210 277.238C271.68 277.238 321.681 227.211 321.681 165.5C321.681 103.789 271.68 53.7617 210 53.7617C148.32 53.7617 98.3188 103.789 98.3188 165.5C98.3188 227.211 148.32 277.238 210 277.238Z" fill="#DBE8EC"/>
<path d="M272.693 256.325H122.015C121.666 256.325 121.32 256.254 120.999 256.117C120.678 255.979 120.388 255.778 120.147 255.526C119.905 255.273 119.718 254.974 119.595 254.647C119.472 254.32 119.417 253.971 119.433 253.622L125.661 115.43C125.691 114.765 125.977 114.137 126.458 113.677C126.938 113.217 127.578 112.96 128.243 112.96H278.921C279.27 112.96 279.616 113.031 279.937 113.169C280.258 113.306 280.548 113.507 280.79 113.76C281.031 114.012 281.219 114.311 281.341 114.638C281.464 114.965 281.519 115.314 281.503 115.663L275.275 253.855C275.245 254.52 274.96 255.148 274.479 255.608C273.998 256.068 273.358 256.325 272.693 256.325Z" fill="#3086A3"/>
<path d="M282.382 115.43C282.352 114.765 282.067 114.137 281.586 113.677C281.105 113.217 280.465 112.96 279.8 112.96H278.921C279.27 112.96 279.616 113.031 279.937 113.169C280.258 113.306 280.548 113.507 280.79 113.76C281.031 114.012 281.219 114.311 281.341 114.638C281.464 114.965 281.519 115.314 281.503 115.663L275.275 253.855C275.245 254.52 274.96 255.148 274.479 255.608C273.998 256.068 273.358 256.325 272.693 256.325H298.951C299.301 256.325 299.646 256.254 299.967 256.117C300.288 255.979 300.578 255.778 300.82 255.526C301.061 255.273 301.249 254.974 301.371 254.647C301.494 254.32 301.549 253.971 301.533 253.622L282.382 115.43Z" fill="#25788E"/>
<path d="M264.251 247.946H131.185C130.876 247.946 130.571 247.884 130.288 247.763C130.004 247.641 129.748 247.464 129.535 247.241C129.322 247.018 129.156 246.754 129.048 246.465C128.939 246.176 128.891 245.868 128.905 245.56L134.405 123.52C134.432 122.932 134.683 122.378 135.108 121.972C135.533 121.566 136.098 121.339 136.685 121.339H269.751C270.06 121.339 270.365 121.401 270.649 121.523C270.932 121.644 271.188 121.821 271.401 122.045C271.614 122.268 271.78 122.532 271.889 122.82C271.997 123.109 272.046 123.417 272.032 123.725L266.531 245.766C266.505 246.353 266.253 246.907 265.828 247.313C265.403 247.72 264.839 247.946 264.251 247.946Z" fill="#409CB5"/>
<path d="M151.387 112.522C151.388 112.675 151.35 112.826 151.278 112.961H149.559C149.486 112.826 149.448 112.675 149.449 112.522C149.449 109.432 147.788 106.82 145.824 106.82C143.86 106.82 142.206 109.432 142.206 112.522C142.206 112.671 142.212 112.813 142.218 112.961C142.367 115.858 143.957 118.224 145.824 118.224C145.934 118.225 146.045 118.216 146.154 118.198C146.28 118.18 146.408 118.186 146.531 118.218C146.655 118.249 146.771 118.305 146.873 118.381C146.975 118.457 147.061 118.553 147.126 118.662C147.191 118.772 147.234 118.893 147.252 119.019C147.27 119.145 147.264 119.273 147.232 119.397C147.201 119.52 147.145 119.636 147.069 119.739C146.993 119.841 146.897 119.927 146.788 119.992C146.679 120.057 146.557 120.1 146.431 120.118C146.23 120.149 146.027 120.164 145.824 120.163C142.871 120.163 140.442 116.97 140.274 112.961C140.267 112.813 140.267 112.671 140.267 112.522C140.267 108.307 142.761 104.88 145.824 104.88C148.893 104.88 151.387 108.307 151.387 112.522Z" fill="#EE781D"/>
<path d="M170.927 112.522C170.928 112.675 170.89 112.826 170.817 112.961H169.098C169.026 112.826 168.988 112.675 168.989 112.522C168.989 109.432 167.328 106.82 165.364 106.82C163.399 106.82 161.739 109.432 161.739 112.522C161.739 112.671 161.745 112.813 161.752 112.961C161.9 115.858 163.496 118.224 165.364 118.224C165.474 118.225 165.584 118.216 165.693 118.198C165.948 118.161 166.206 118.227 166.412 118.381C166.618 118.535 166.755 118.764 166.792 119.019C166.829 119.274 166.763 119.532 166.609 119.739C166.455 119.945 166.226 120.081 165.971 120.118C165.77 120.149 165.567 120.164 165.364 120.163C162.404 120.163 159.975 116.97 159.807 112.961C159.8 112.813 159.8 112.671 159.8 112.522C159.8 108.307 162.294 104.88 165.364 104.88C168.426 104.88 170.927 108.307 170.927 112.522Z" fill="#EE781D"/>
<path d="M190.46 112.522C190.461 112.675 190.423 112.826 190.351 112.961H188.632C188.559 112.826 188.522 112.675 188.522 112.522C188.522 109.432 186.861 106.82 184.903 106.82C182.939 106.82 181.279 109.432 181.279 112.522C181.279 112.671 181.285 112.813 181.291 112.961C181.44 115.858 183.036 118.224 184.903 118.224C185.012 118.225 185.12 118.216 185.227 118.198C185.481 118.16 185.74 118.225 185.947 118.379C186.153 118.532 186.291 118.761 186.328 119.016C186.366 119.27 186.301 119.53 186.148 119.736C185.994 119.943 185.765 120.08 185.511 120.118C185.31 120.149 185.107 120.164 184.903 120.163C181.944 120.163 179.515 116.97 179.347 112.961C179.34 112.813 179.34 112.671 179.34 112.522C179.34 108.307 181.834 104.88 184.903 104.88C187.966 104.88 190.46 108.307 190.46 112.522Z" fill="#EE781D"/>
<path d="M210 112.522C210.001 112.675 209.963 112.826 209.89 112.961H208.171C208.099 112.826 208.061 112.675 208.062 112.522C208.062 109.432 206.401 106.82 204.437 106.82C202.472 106.82 200.812 109.432 200.812 112.522C200.812 112.671 200.818 112.813 200.825 112.961C200.973 115.858 202.569 118.224 204.437 118.224C204.547 118.225 204.657 118.216 204.766 118.198C205.021 118.161 205.279 118.227 205.485 118.381C205.691 118.535 205.828 118.764 205.865 119.019C205.902 119.274 205.836 119.532 205.682 119.739C205.528 119.945 205.299 120.081 205.044 120.118C204.843 120.149 204.64 120.164 204.437 120.163C201.484 120.163 199.048 116.97 198.88 112.961C198.873 112.813 198.873 112.671 198.873 112.522C198.873 108.307 201.374 104.88 204.437 104.88C207.506 104.88 210 108.307 210 112.522Z" fill="#EE781D"/>
<path d="M229.533 112.522C229.534 112.675 229.496 112.826 229.423 112.961H227.705C227.632 112.826 227.594 112.675 227.595 112.522C227.595 109.432 225.941 106.82 223.976 106.82C222.012 106.82 220.351 109.432 220.351 112.522C220.351 112.671 220.358 112.813 220.364 112.961C220.519 116.026 222.316 118.489 224.299 118.198C224.554 118.16 224.813 118.225 225.019 118.379C225.226 118.532 225.363 118.761 225.401 119.016C225.439 119.27 225.374 119.53 225.22 119.736C225.067 119.943 224.838 120.08 224.584 120.118C224.383 120.149 224.18 120.164 223.976 120.163C221.017 120.163 218.587 116.97 218.419 112.961C218.413 112.813 218.413 112.671 218.413 112.522C218.413 108.307 220.907 104.88 223.976 104.88C227.039 104.88 229.533 108.307 229.533 112.522Z" fill="#EE781D"/>
<path d="M249.073 112.522C249.073 112.675 249.036 112.826 248.963 112.961H247.244C247.172 112.826 247.134 112.675 247.134 112.522C247.134 109.432 245.474 106.82 243.51 106.82C241.545 106.82 239.891 109.432 239.891 112.522C239.891 112.671 239.898 112.813 239.904 112.961C240.053 115.858 241.642 118.224 243.51 118.224C243.62 118.225 243.73 118.216 243.839 118.198C244.094 118.161 244.352 118.227 244.558 118.381C244.764 118.535 244.901 118.764 244.938 119.019C244.974 119.274 244.909 119.532 244.755 119.739C244.601 119.945 244.371 120.081 244.117 120.118C243.916 120.149 243.713 120.164 243.51 120.163C240.557 120.163 238.127 116.97 237.959 112.961C237.953 112.813 237.953 112.671 237.953 112.522C237.953 108.307 240.447 104.88 243.51 104.88C246.579 104.88 249.073 108.307 249.073 112.522Z" fill="#EE781D"/>
<path d="M267.185 112.522C267.185 112.675 267.147 112.826 267.075 112.961H265.356C265.284 112.826 265.246 112.675 265.246 112.522C265.246 109.432 263.586 106.82 261.621 106.82C259.657 106.82 257.996 109.432 257.996 112.522C257.996 112.671 258.003 112.813 258.009 112.961C258.158 115.858 259.754 118.224 261.621 118.224C261.732 118.225 261.842 118.216 261.951 118.198C262.205 118.161 262.464 118.227 262.67 118.381C262.876 118.535 263.012 118.764 263.049 119.019C263.086 119.274 263.02 119.532 262.866 119.739C262.713 119.945 262.483 120.081 262.229 120.118C262.028 120.149 261.825 120.164 261.621 120.163C258.662 120.163 256.232 116.97 256.064 112.961C256.058 112.813 256.058 112.671 256.058 112.522C256.058 108.307 258.552 104.88 261.621 104.88C264.684 104.88 267.185 108.307 267.185 112.522Z" fill="#EE781D"/>
<path d="M285.096 238.147H282.944V238.069C283.655 238.121 284.372 238.147 285.096 238.147Z" fill="#25788E"/>
<path d="M264.727 126.77L259.609 203.867C259.609 206.008 259.187 208.128 258.368 210.107C257.549 212.085 256.349 213.882 254.835 215.397C253.322 216.911 251.525 218.112 249.548 218.931C247.571 219.75 245.452 220.172 243.312 220.172C239.358 220.172 235.54 218.735 232.568 216.127C229.595 213.52 227.671 209.92 227.155 205.999L225.44 192.991H129.895L135.013 126.77L264.727 126.77Z" fill="#409CB5"/>
<path d="M125.667 220.172C121.714 220.172 117.896 218.734 114.923 216.127C111.951 213.519 110.027 209.92 109.51 205.999L107.796 192.991H225.44L227.155 205.999C227.671 209.92 229.595 213.519 232.568 216.127C235.54 218.734 239.359 220.172 243.312 220.172H125.667Z" fill="#25788E"/>
<mask id="mask0_3207_1984" style="mask-type:luminance" maskUnits="userSpaceOnUse" x="129" y="126" width="136" height="95">
<path d="M264.727 126.77L259.609 203.867C259.609 206.008 259.187 208.128 258.368 210.107C257.549 212.085 256.349 213.882 254.835 215.397C253.322 216.911 251.525 218.112 249.548 218.931C247.571 219.75 245.452 220.172 243.312 220.172C239.358 220.172 235.54 218.735 232.568 216.127C229.595 213.52 227.671 209.92 227.155 205.999L225.44 192.991H129.895L135.013 126.77L264.727 126.77Z" fill="white"/>
</mask>
<g mask="url(#mask0_3207_1984)">
<path d="M168.665 155.861H145.393C145.144 155.861 144.897 155.81 144.668 155.712C144.439 155.614 144.232 155.471 144.059 155.29C143.887 155.11 143.753 154.897 143.666 154.663C143.578 154.43 143.539 154.181 143.55 153.932L144.502 132.818C144.523 132.344 144.726 131.895 145.07 131.567C145.413 131.239 145.87 131.056 146.344 131.056H169.617C169.866 131.056 170.113 131.106 170.342 131.204C170.571 131.302 170.778 131.446 170.951 131.626C171.123 131.806 171.257 132.02 171.344 132.253C171.432 132.486 171.471 132.735 171.46 132.984L170.508 154.098C170.487 154.573 170.283 155.021 169.94 155.349C169.597 155.678 169.14 155.861 168.665 155.861Z" fill="#DBE8EC"/>
<path d="M198.047 155.861H174.774C174.525 155.861 174.278 155.81 174.049 155.712C173.82 155.614 173.613 155.471 173.441 155.29C173.268 155.11 173.135 154.897 173.047 154.663C172.959 154.43 172.92 154.181 172.931 153.932L173.883 132.818C173.904 132.344 174.108 131.895 174.451 131.567C174.794 131.239 175.251 131.056 175.726 131.056H198.998C199.248 131.056 199.494 131.106 199.724 131.204C199.953 131.302 200.16 131.446 200.332 131.626C200.504 131.806 200.638 132.02 200.726 132.253C200.813 132.486 200.852 132.735 200.841 132.984L199.89 154.098C199.868 154.573 199.665 155.021 199.322 155.349C198.978 155.678 198.522 155.861 198.047 155.861Z" fill="#DBE8EC"/>
<path d="M227.428 155.861H204.156C203.907 155.861 203.66 155.81 203.431 155.712C203.201 155.614 202.995 155.471 202.822 155.29C202.65 155.11 202.516 154.897 202.429 154.663C202.341 154.43 202.302 154.181 202.313 153.932L203.265 132.818C203.286 132.344 203.489 131.895 203.833 131.567C204.176 131.239 204.632 131.056 205.107 131.056H228.38C228.629 131.056 228.876 131.106 229.105 131.204C229.334 131.302 229.541 131.446 229.714 131.626C229.886 131.806 230.02 132.02 230.107 132.253C230.195 132.486 230.234 132.735 230.223 132.984L229.271 154.098C229.25 154.573 229.046 155.021 228.703 155.349C228.36 155.678 227.903 155.861 227.428 155.861Z" fill="#DBE8EC"/>
<path d="M256.81 155.861H233.537C233.288 155.861 233.041 155.81 232.812 155.712C232.583 155.614 232.376 155.471 232.204 155.29C232.031 155.11 231.897 154.897 231.81 154.663C231.722 154.43 231.683 154.181 231.694 153.932L232.646 132.818C232.667 132.344 232.871 131.895 233.214 131.567C233.557 131.239 234.014 131.056 234.489 131.056H257.761C258.011 131.056 258.257 131.106 258.486 131.204C258.716 131.302 258.923 131.446 259.095 131.626C259.267 131.806 259.401 132.02 259.489 132.253C259.576 132.486 259.615 132.735 259.604 132.984L258.653 154.098C258.631 154.573 258.428 155.021 258.084 155.349C257.741 155.678 257.285 155.861 256.81 155.861Z" fill="#DBE8EC"/>
<path d="M167.339 183.324H144.066C143.817 183.324 143.57 183.273 143.341 183.175C143.112 183.077 142.905 182.934 142.733 182.753C142.56 182.573 142.427 182.36 142.339 182.126C142.251 181.893 142.212 181.644 142.223 181.395L143.175 160.281C143.196 159.806 143.4 159.358 143.743 159.03C144.086 158.702 144.543 158.519 145.018 158.519H168.29C168.54 158.519 168.786 158.569 169.016 158.667C169.245 158.765 169.452 158.909 169.624 159.089C169.796 159.269 169.93 159.482 170.018 159.716C170.105 159.949 170.144 160.198 170.133 160.447L169.182 181.561C169.16 182.036 168.957 182.484 168.614 182.812C168.27 183.14 167.814 183.324 167.339 183.324Z" fill="#DBE8EC"/>
<path d="M196.72 183.324H173.447C173.198 183.324 172.952 183.273 172.722 183.175C172.493 183.077 172.286 182.934 172.114 182.753C171.942 182.573 171.808 182.36 171.72 182.126C171.633 181.893 171.593 181.644 171.605 181.395L172.556 160.281C172.578 159.806 172.781 159.358 173.124 159.03C173.468 158.702 173.924 158.519 174.399 158.519H197.672C197.921 158.519 198.168 158.569 198.397 158.667C198.626 158.765 198.833 158.909 199.005 159.089C199.177 159.269 199.311 159.482 199.399 159.716C199.487 159.949 199.526 160.198 199.515 160.447L198.563 181.561C198.542 182.036 198.338 182.484 197.995 182.812C197.652 183.14 197.195 183.324 196.72 183.324Z" fill="#DBE8EC"/>
<path d="M226.102 183.324H202.829C202.58 183.324 202.333 183.273 202.104 183.175C201.875 183.077 201.668 182.934 201.496 182.753C201.323 182.573 201.189 182.36 201.102 182.126C201.014 181.893 200.975 181.644 200.986 181.395L201.938 160.281C201.959 159.806 202.163 159.358 202.506 159.03C202.849 158.702 203.306 158.519 203.781 158.519H227.053C227.303 158.519 227.549 158.569 227.778 158.667C228.008 158.765 228.215 158.909 228.387 159.089C228.559 159.269 228.693 159.482 228.781 159.716C228.868 159.949 228.907 160.198 228.896 160.447L227.945 181.561C227.923 182.036 227.72 182.484 227.376 182.812C227.033 183.14 226.577 183.324 226.102 183.324Z" fill="#DBE8EC"/>
<path d="M255.483 183.324H232.211C231.961 183.324 231.715 183.273 231.486 183.175C231.256 183.077 231.049 182.934 230.877 182.753C230.705 182.573 230.571 182.36 230.484 182.126C230.396 181.893 230.357 181.644 230.368 181.395L231.319 160.281C231.341 159.806 231.544 159.358 231.888 159.03C232.231 158.702 232.687 158.519 233.162 158.519H256.435C256.684 158.519 256.931 158.569 257.16 158.667C257.389 158.765 257.596 158.909 257.768 159.089C257.941 159.269 258.075 159.482 258.162 159.716C258.25 159.949 258.289 160.198 258.278 160.447L257.326 181.561C257.305 182.036 257.101 182.484 256.758 182.812C256.415 183.14 255.958 183.324 255.483 183.324Z" fill="#DBE8EC"/>
<path d="M166.448 210.787H143.175C142.926 210.787 142.679 210.736 142.45 210.638C142.221 210.54 142.014 210.397 141.842 210.216C141.67 210.036 141.536 209.823 141.448 209.589C141.361 209.356 141.321 209.107 141.332 208.858L142.284 187.744C142.305 187.269 142.509 186.821 142.852 186.493C143.195 186.165 143.652 185.981 144.127 185.981H167.4C167.649 185.981 167.895 186.032 168.125 186.13C168.354 186.228 168.561 186.371 168.733 186.552C168.905 186.732 169.039 186.945 169.127 187.179C169.214 187.412 169.254 187.661 169.242 187.91L168.291 209.024C168.269 209.499 168.066 209.947 167.723 210.275C167.379 210.603 166.923 210.787 166.448 210.787Z" fill="#DBE8EC"/>
<path d="M195.829 210.787H172.557C172.307 210.787 172.061 210.736 171.832 210.638C171.602 210.54 171.395 210.397 171.223 210.216C171.051 210.036 170.917 209.823 170.829 209.589C170.742 209.356 170.703 209.107 170.714 208.858L171.665 187.744C171.687 187.269 171.89 186.821 172.234 186.493C172.577 186.165 173.033 185.981 173.508 185.981H196.781C197.03 185.981 197.277 186.032 197.506 186.13C197.735 186.228 197.942 186.371 198.114 186.552C198.287 186.732 198.421 186.945 198.508 187.179C198.596 187.412 198.635 187.661 198.624 187.91L197.672 209.024C197.651 209.499 197.447 209.947 197.104 210.275C196.761 210.603 196.304 210.787 195.829 210.787Z" fill="#DBE8EC"/>
<path d="M225.211 210.787H201.938C201.689 210.787 201.442 210.736 201.213 210.638C200.984 210.54 200.777 210.397 200.604 210.216C200.432 210.036 200.298 209.823 200.211 209.589C200.123 209.356 200.084 209.107 200.095 208.858L201.047 187.744C201.068 187.269 201.272 186.821 201.615 186.493C201.958 186.165 202.415 185.981 202.89 185.981H226.162C226.412 185.981 226.658 186.032 226.887 186.13C227.117 186.228 227.323 186.371 227.496 186.552C227.668 186.732 227.802 186.945 227.889 187.179C227.977 187.412 228.016 187.661 228.005 187.91L227.053 209.024C227.032 209.499 226.829 209.947 226.485 210.275C226.142 210.603 225.685 210.787 225.211 210.787Z" fill="#DBE8EC"/>
<path d="M254.592 210.787H231.32C231.07 210.787 230.824 210.736 230.594 210.638C230.365 210.54 230.158 210.397 229.986 210.216C229.814 210.036 229.68 209.823 229.592 209.589C229.505 209.356 229.465 209.107 229.477 208.858L230.428 187.744C230.45 187.269 230.653 186.821 230.997 186.493C231.34 186.165 231.796 185.981 232.271 185.981H255.544C255.793 185.981 256.04 186.032 256.269 186.13C256.498 186.228 256.705 186.371 256.877 186.552C257.05 186.732 257.183 186.945 257.271 187.179C257.359 187.412 257.398 187.661 257.387 187.91L256.435 209.024C256.414 209.499 256.21 209.947 255.867 210.275C255.524 210.603 255.067 210.787 254.592 210.787Z" fill="#DBE8EC"/>
<path d="M165.384 238.146H142.112C141.863 238.146 141.616 238.095 141.387 237.997C141.158 237.899 140.951 237.756 140.778 237.576C140.606 237.395 140.472 237.182 140.385 236.949C140.297 236.715 140.258 236.466 140.269 236.217L141.221 215.103C141.242 214.629 141.445 214.181 141.789 213.852C142.132 213.524 142.589 213.341 143.063 213.341H166.336C166.585 213.341 166.832 213.391 167.061 213.489C167.29 213.587 167.497 213.731 167.67 213.911C167.842 214.091 167.976 214.305 168.063 214.538C168.151 214.772 168.19 215.02 168.179 215.27L167.227 236.383C167.206 236.858 167.002 237.306 166.659 237.634C166.316 237.963 165.859 238.146 165.384 238.146Z" fill="#DBE8EC"/>
<path d="M194.766 238.146H171.493C171.244 238.146 170.997 238.095 170.768 237.997C170.539 237.899 170.332 237.756 170.16 237.576C169.988 237.395 169.854 237.182 169.766 236.949C169.679 236.715 169.639 236.466 169.651 236.217L170.602 215.103C170.624 214.629 170.827 214.181 171.17 213.852C171.514 213.524 171.97 213.341 172.445 213.341H195.718C195.967 213.341 196.214 213.391 196.443 213.489C196.672 213.587 196.879 213.731 197.051 213.911C197.223 214.091 197.357 214.305 197.445 214.538C197.532 214.772 197.572 215.02 197.561 215.27L196.609 236.383C196.588 236.858 196.384 237.306 196.041 237.634C195.698 237.963 195.241 238.146 194.766 238.146Z" fill="#DBE8EC"/>
<path d="M224.147 238.146H200.875C200.626 238.146 200.379 238.095 200.15 237.997C199.92 237.899 199.714 237.756 199.541 237.576C199.369 237.395 199.235 237.182 199.148 236.949C199.06 236.715 199.021 236.466 199.032 236.217L199.984 215.103C200.005 214.629 200.208 214.181 200.552 213.852C200.895 213.524 201.351 213.341 201.826 213.341H225.099C225.348 213.341 225.595 213.391 225.824 213.489C226.053 213.587 226.26 213.731 226.432 213.911C226.605 214.091 226.739 214.305 226.826 214.538C226.914 214.772 226.953 215.02 226.942 215.27L225.99 236.383C225.969 236.858 225.765 237.306 225.422 237.634C225.079 237.963 224.622 238.146 224.147 238.146Z" fill="#DBE8EC"/>
<path d="M253.529 238.146H230.256C230.007 238.146 229.76 238.095 229.531 237.997C229.302 237.899 229.095 237.756 228.923 237.576C228.751 237.395 228.617 237.182 228.529 236.949C228.442 236.715 228.402 236.466 228.413 236.217L229.365 215.103C229.386 214.629 229.59 214.181 229.933 213.852C230.277 213.524 230.733 213.341 231.208 213.341H254.481C254.73 213.341 254.977 213.391 255.206 213.489C255.435 213.587 255.642 213.731 255.814 213.911C255.986 214.091 256.12 214.305 256.208 214.538C256.295 214.772 256.335 215.02 256.324 215.27L255.372 236.383C255.35 236.858 255.147 237.306 254.804 237.634C254.46 237.963 254.004 238.146 253.529 238.146Z" fill="#DBE8EC"/>
<path d="M207.548 135.034L225.302 151.675" stroke="#EE781D" stroke-width="3" stroke-miterlimit="10" stroke-linecap="round"/>
<path d="M225.757 135.55L207.093 151.161" stroke="#EE781D" stroke-width="3" stroke-miterlimit="10" stroke-linecap="round"/>
<path d="M147.302 162.619L165.055 179.26" stroke="#EE781D" stroke-width="3" stroke-miterlimit="10" stroke-linecap="round"/>
<path d="M165.511 163.135L146.846 178.746" stroke="#EE781D" stroke-width="3" stroke-miterlimit="10" stroke-linecap="round"/>
</g>
<path d="M315.16 251.151H260.634C260.353 251.151 260.077 251.08 259.831 250.943C259.586 250.806 259.379 250.608 259.232 250.369C259.084 250.13 259 249.857 258.987 249.576C258.974 249.295 259.034 249.015 259.159 248.764L286.422 177.713C286.559 177.439 286.77 177.208 287.03 177.047C287.291 176.886 287.591 176.801 287.897 176.801C288.203 176.801 288.503 176.886 288.764 177.047C289.024 177.208 289.235 177.439 289.372 177.713L316.635 248.764C316.76 249.015 316.82 249.295 316.807 249.576C316.794 249.857 316.71 250.13 316.563 250.369C316.415 250.608 316.208 250.806 315.963 250.943C315.717 251.08 315.441 251.151 315.16 251.151Z" fill="#D62828"/>
<path d="M322.298 243.702H253.496C250.737 243.702 248.5 245.94 248.5 248.701V251.46C248.5 254.221 250.737 256.459 253.496 256.459H322.298C325.057 256.459 327.294 254.221 327.294 251.46V248.701C327.294 245.94 325.057 243.702 322.298 243.702Z" fill="#F9AE2B"/>
<path d="M276.574 203.378L268.514 224.384H307.28L299.22 203.378H276.574Z" fill="#F9AE2B"/>
<path d="M252.236 61.2363H273.109" stroke="#3086A3" stroke-width="3" stroke-miterlimit="10" stroke-linecap="round"/>
<path d="M252.236 67.2554H273.109" stroke="#3086A3" stroke-width="3" stroke-miterlimit="10" stroke-linecap="round"/>
<path d="M252.236 73.2744H273.109" stroke="#3086A3" stroke-width="3" stroke-miterlimit="10" stroke-linecap="round"/>
<path d="M80.604 189.077H101.477" stroke="#3086A3" stroke-width="3" stroke-miterlimit="10" stroke-linecap="round"/>
<path d="M80.604 195.097H101.477" stroke="#3086A3" stroke-width="3" stroke-miterlimit="10" stroke-linecap="round"/>
<path d="M80.604 201.115H101.477" stroke="#3086A3" stroke-width="3" stroke-miterlimit="10" stroke-linecap="round"/>
<path d="M336.196 173.425C341.123 173.425 345.117 169.428 345.117 164.498C345.117 159.569 341.123 155.572 336.196 155.572C331.269 155.572 327.274 159.569 327.274 164.498C327.274 169.428 331.269 173.425 336.196 173.425Z" fill="#B9D4DB"/>
<path d="M312.653 175.568C315.208 175.568 317.279 173.496 317.279 170.94C317.279 168.384 315.208 166.312 312.653 166.312C310.098 166.312 308.027 168.384 308.027 170.94C308.027 173.496 310.098 175.568 312.653 175.568Z" fill="#B9D4DB"/>
<path d="M324.399 149.269C328.049 149.269 331.008 146.309 331.008 142.657C331.008 139.005 328.049 136.045 324.399 136.045C320.749 136.045 317.791 139.005 317.791 142.657C317.791 146.309 320.749 149.269 324.399 149.269Z" fill="#B9D4DB"/>
<path d="M110.31 275.131C116.172 275.131 120.925 270.376 120.925 264.51C120.925 258.645 116.172 253.89 110.31 253.89C104.447 253.89 99.6948 258.645 99.6948 264.51C99.6948 270.376 104.447 275.131 110.31 275.131Z" fill="#B9D4DB"/>
<path d="M88.683 270.981C91.7367 270.981 94.2122 268.504 94.2122 265.449C94.2122 262.394 91.7367 259.917 88.683 259.917C85.6293 259.917 83.1538 262.394 83.1538 265.449C83.1538 268.504 85.6293 270.981 88.683 270.981Z" fill="#B9D4DB"/>
<path d="M86.038 249.342C87.7994 249.342 89.2274 247.913 89.2274 246.151C89.2274 244.389 87.7994 242.96 86.038 242.96C84.2766 242.96 82.8486 244.389 82.8486 246.151C82.8486 247.913 84.2766 249.342 86.038 249.342Z" fill="#B9D4DB"/>
<path d="M103.178 248.997C107.4 248.997 110.823 245.573 110.823 241.348C110.823 237.123 107.4 233.698 103.178 233.698C98.9551 233.698 95.532 237.123 95.532 241.348C95.532 245.573 98.9551 248.997 103.178 248.997Z" fill="#B9D4DB"/>
<path d="M156.271 96.3551C169.012 96.3551 179.34 86.0214 179.34 73.2742C179.34 60.527 169.012 50.1934 156.271 50.1934C143.53 50.1934 133.202 60.527 133.202 73.2742C133.202 86.0214 143.53 96.3551 156.271 96.3551Z" fill="#409CB5"/>
<path d="M156.271 58.1455H156.271C155.607 58.1455 155.069 58.6837 155.069 59.3476V78.2929C155.069 78.9568 155.607 79.495 156.271 79.495C156.935 79.495 157.473 78.9568 157.473 78.2929V59.3476C157.473 58.6837 156.935 58.1455 156.271 58.1455Z" fill="#F9AE2B"/>
<path d="M156.271 88.4035C159.171 88.4035 159.175 83.8955 156.271 83.8955C153.372 83.8955 153.367 88.4035 156.271 88.4035Z" fill="#F9AE2B"/>
</svg>
