<svg width="420" height="331" viewBox="0 0 420 331" fill="none" xmlns="http://www.w3.org/2000/svg">
<path d="M375.044 65.24H388.225C390.467 65.24 392.616 64.3491 394.201 62.7633C395.786 61.1776 396.676 59.0268 396.676 56.7843V45.0238C396.676 42.7813 395.786 40.6306 394.201 39.0449C392.616 37.4592 390.467 36.5684 388.225 36.5684H41.1146C40.0048 36.5683 38.9058 36.787 37.8804 37.212C36.8551 37.6369 35.9234 38.2597 35.1386 39.0448C34.3538 39.83 33.7313 40.7621 33.3066 41.788C32.8819 42.8139 32.6633 43.9134 32.6632 45.0238V56.7843C32.6632 59.0269 33.5536 61.1776 35.1386 62.7634C36.7235 64.3491 38.8731 65.24 41.1146 65.24H53.9385C55.0484 65.24 56.1474 65.4587 57.1727 65.8837C58.1981 66.3086 59.1298 66.9315 59.9145 67.7167C60.6993 68.5018 61.3218 69.434 61.7466 70.4599C62.1713 71.4858 62.3899 72.5853 62.3899 73.6958V85.4559C62.3899 86.5663 62.1713 87.6659 61.7466 88.6918C61.3218 89.7177 60.6993 90.6498 59.9145 91.435C59.1298 92.2202 58.1981 92.843 57.1727 93.268C56.1474 93.6929 55.0484 93.9117 53.9385 93.9117H53.9075C51.6661 93.9117 49.5164 94.8026 47.9315 96.3883C46.3466 97.9741 45.4562 100.125 45.4562 102.367V114.128C45.4562 116.37 46.3466 118.521 47.9315 120.107C49.5164 121.692 51.6661 122.583 53.9075 122.583H55.7629C58.0043 122.583 60.1539 123.474 61.7388 125.06C63.3237 126.646 64.2141 128.796 64.2142 131.039V142.799C64.2138 144.739 63.5468 146.62 62.3248 148.127C61.1029 149.634 59.4004 150.674 57.5028 151.074H41.1146C40.5299 151.074 39.9468 151.135 39.3747 151.255H25.3132C23.0718 151.255 20.9222 152.146 19.3373 153.731C17.7523 155.317 16.8619 157.468 16.8618 159.71V171.471C16.8618 173.713 17.7522 175.864 19.3372 177.45C20.9221 179.036 23.0718 179.927 25.3132 179.927H55.6784C57.576 180.326 59.2786 181.367 60.5005 182.873C61.7225 184.38 62.3895 186.261 62.3899 188.201V199.961C62.3899 201.072 62.1713 202.171 61.7466 203.197C61.3218 204.223 60.6993 205.155 59.9145 205.94C59.1298 206.726 58.1981 207.348 57.1727 207.773C56.1474 208.198 55.0484 208.417 53.9385 208.417H53.9075C52.7977 208.417 51.6987 208.636 50.6733 209.061C49.648 209.486 48.7163 210.108 47.9315 210.894C47.1468 211.679 46.5242 212.611 46.0995 213.637C45.6748 214.663 45.4562 215.762 45.4562 216.872V228.633C45.4562 229.743 45.6748 230.843 46.0995 231.869C46.5242 232.895 47.1468 233.827 47.9315 234.612C48.7163 235.397 49.648 236.02 50.6734 236.445C51.6987 236.87 52.7977 237.088 53.9075 237.088H55.7629C58.0044 237.088 60.154 237.979 61.7389 239.565C63.3238 241.151 64.2142 243.302 64.2142 245.544V257.305C64.2142 259.547 63.3238 261.698 61.7389 263.284C60.154 264.869 58.0044 265.76 55.7629 265.76H38.2363C37.1265 265.76 36.0275 265.979 35.0021 266.404C33.9768 266.829 33.0451 267.452 32.2603 268.237C31.4755 269.022 30.853 269.954 30.4282 270.98C30.0035 272.006 29.7849 273.105 29.7849 274.216V285.976C29.7849 287.087 30.0035 288.186 30.4282 289.212C30.853 290.238 31.4755 291.17 32.2603 291.955C33.0451 292.74 33.9768 293.363 35.0021 293.788C36.0275 294.213 37.1265 294.432 38.2363 294.432H370.335C371.445 294.432 372.544 294.213 373.57 293.788C374.595 293.363 375.527 292.74 376.311 291.955C377.096 291.17 377.719 290.238 378.144 289.212C378.568 288.186 378.787 287.087 378.787 285.976V274.216C378.787 273.105 378.568 272.006 378.144 270.98C377.719 269.954 377.096 269.022 376.311 268.237C375.527 267.452 374.595 266.829 373.57 266.404C372.544 265.979 371.445 265.76 370.335 265.76H363.008C360.766 265.76 358.617 264.869 357.032 263.284C355.447 261.698 354.556 259.547 354.556 257.305V245.544C354.556 243.302 355.447 241.151 357.032 239.565C358.617 237.979 360.766 237.088 363.008 237.088H380.286C381.396 237.088 382.495 236.87 383.52 236.445C384.545 236.02 385.477 235.397 386.262 234.612C387.047 233.827 387.669 232.895 388.094 231.869C388.519 230.843 388.737 229.743 388.737 228.633V216.872C388.737 215.762 388.519 214.663 388.094 213.637C387.669 212.611 387.047 211.679 386.262 210.894C385.477 210.108 384.545 209.486 383.52 209.061C382.495 208.636 381.396 208.417 380.286 208.417H375.044C372.803 208.417 370.653 207.526 369.068 205.94C367.483 204.355 366.593 202.204 366.593 199.961V188.201C366.593 185.958 367.483 183.808 369.068 182.222C370.653 180.636 372.803 179.745 375.044 179.745H394.687C395.797 179.745 396.896 179.526 397.921 179.102C398.946 178.677 399.878 178.054 400.663 177.269C401.447 176.483 402.07 175.551 402.495 174.525C402.919 173.5 403.138 172.4 403.138 171.29V159.529C403.138 158.419 402.919 157.319 402.495 156.293C402.07 155.268 401.447 154.335 400.663 153.55C399.878 152.765 398.946 152.142 397.921 151.717C396.896 151.292 395.797 151.074 394.687 151.074H364.856C362.615 151.074 360.465 150.183 358.88 148.597C357.295 147.011 356.405 144.861 356.405 142.618V130.858C356.405 128.917 357.072 127.036 358.294 125.53C359.516 124.023 361.219 122.983 363.117 122.583H380.286C381.396 122.583 382.495 122.365 383.52 121.94C384.545 121.515 385.477 120.892 386.262 120.107C387.047 119.321 387.669 118.389 388.094 117.363C388.519 116.338 388.737 115.238 388.737 114.128V102.367C388.737 101.257 388.519 100.157 388.094 99.1316C387.669 98.1057 387.047 97.1735 386.262 96.3883C385.477 95.6031 384.545 94.9803 383.52 94.5554C382.495 94.1304 381.396 93.9117 380.286 93.9117H375.045C372.803 93.9117 370.653 93.0208 369.068 91.435C367.484 89.8493 366.593 87.6985 366.593 85.4559V73.6958C366.593 71.4532 367.484 69.3024 369.068 67.7167C370.653 66.1309 372.803 65.24 375.044 65.24Z" fill="#DBE8EC"/>
<path d="M311.35 60.1924H166.082C163.941 60.1924 162.205 61.929 162.205 64.0713V281.712C162.205 283.854 163.941 285.591 166.082 285.591H311.35C313.492 285.591 315.227 283.854 315.227 281.712V64.0713C315.227 61.929 313.492 60.1924 311.35 60.1924Z" fill="#409CB5"/>
<path d="M265.637 226.592V259.264H182.378C181.484 259.264 180.626 258.909 179.993 258.276C179.36 257.643 179.005 256.784 179.005 255.889V73.0862C179.005 72.191 179.36 71.3325 179.993 70.6995C180.626 70.0665 181.484 69.7109 182.378 69.7109H295.054C295.948 69.7109 296.806 70.0665 297.439 70.6995C298.072 71.3325 298.427 72.191 298.427 73.0862V226.592H265.637Z" fill="#F9AE2B"/>
<path d="M265.636 259.264V226.592H298.427L265.636 259.264Z" fill="#DBE8EC"/>
<path d="M131.711 101.053H90.2475C89.177 101.053 88.3091 101.921 88.3091 102.992V126.346C88.3091 127.417 89.177 128.285 90.2475 128.285H131.711C132.781 128.285 133.649 127.417 133.649 126.346V102.992C133.649 101.921 132.781 101.053 131.711 101.053Z" fill="#EE781D"/>
<path d="M117.002 97.2725H104.956C103.885 97.2725 103.018 98.1408 103.018 99.2119V104.244C103.018 105.315 103.885 106.183 104.956 106.183H117.002C118.073 106.183 118.941 105.315 118.941 104.244V99.2119C118.941 98.1408 118.073 97.2725 117.002 97.2725Z" fill="#409CB5"/>
<path d="M370.865 174.383H329.402C328.331 174.383 327.463 175.251 327.463 176.322V199.676C327.463 200.747 328.331 201.615 329.402 201.615H370.865C371.935 201.615 372.803 200.747 372.803 199.676V176.322C372.803 175.251 371.935 174.383 370.865 174.383Z" fill="#EE781D"/>
<path d="M356.156 170.603H344.11C343.04 170.603 342.172 171.471 342.172 172.542V177.574C342.172 178.645 343.04 179.513 344.11 179.513H356.156C357.227 179.513 358.095 178.645 358.095 177.574V172.542C358.095 171.471 357.227 170.603 356.156 170.603Z" fill="#409CB5"/>
<path d="M63.9624 156.105H102.642C104.289 156.105 105.918 156.441 107.43 157.092C108.942 157.743 110.307 158.695 111.439 159.89C112.572 161.085 113.45 162.499 114.019 164.045C114.588 165.59 114.837 167.235 114.75 168.88C113.528 192.318 109.648 217.481 109.648 217.481C109.648 217.481 75.6563 221.556 71.2925 221.556H68.2108C66.7845 221.556 65.3768 221.233 64.0932 220.611C62.8096 219.989 61.6835 219.084 60.7994 217.964C59.9152 216.844 59.2961 215.539 58.9883 214.145C58.6806 212.752 58.6923 211.307 59.0225 209.919L69.2539 166.903C69.5841 165.515 69.5957 164.07 69.288 162.676C68.9802 161.283 68.3611 159.977 67.477 158.858C66.5929 157.738 65.4668 156.833 64.1832 156.211C62.8996 155.589 61.4918 155.266 60.0656 155.266L63.9624 156.105Z" fill="#EE781D"/>
<path d="M66.73 221.64H104.612L100.858 238.516L113.239 184.544C113.557 183.159 113.558 181.721 113.243 180.336C112.929 178.951 112.306 177.654 111.421 176.543C110.537 175.432 109.413 174.534 108.134 173.918C106.855 173.301 105.453 172.98 104.033 172.98H98.0019C95.8818 172.98 93.8234 173.694 92.1579 175.007C90.4924 176.319 89.3167 178.154 88.8199 180.216L80.4743 214.32C79.9776 216.382 78.8018 218.217 77.1363 219.53C75.4708 220.842 73.4124 221.556 71.2924 221.556L66.73 221.64Z" fill="#E06714"/>
<path d="M47.1965 173.81L51.0298 161.964C51.6193 160.026 52.8158 158.329 54.4427 157.123C56.0695 155.917 58.0407 155.266 60.0655 155.266C61.4918 155.266 62.8995 155.589 64.1831 156.211C65.4667 156.833 66.5928 157.738 67.4769 158.858C68.361 159.977 68.9802 161.283 69.2879 162.676C69.5957 164.07 69.584 165.515 69.2538 166.903L67.6109 173.81H47.1965Z" fill="#E06714"/>
<path d="M104.034 172.98C105.453 172.98 106.855 173.301 108.134 173.918C109.413 174.534 110.537 175.432 111.421 176.543C112.306 177.654 112.929 178.951 113.244 180.336C113.558 181.721 113.557 183.159 113.239 184.544L92.7125 274.027C92.3949 275.412 92.3934 276.85 92.7081 278.235C93.0228 279.621 93.6456 280.917 94.5302 282.028C95.4148 283.14 96.5384 284.037 97.8175 284.654C99.0966 285.27 100.498 285.591 101.918 285.591H105.598L156.886 274.027L177.412 184.544C177.73 183.16 177.731 181.721 177.417 180.336C177.102 178.951 176.479 177.654 175.595 176.543C174.71 175.432 173.586 174.534 172.307 173.918C171.028 173.301 169.627 172.981 168.207 172.981H162.175L104.034 172.98Z" fill="#F98232"/>
<path d="M166.091 285.591H169.771C171.819 285.591 173.812 284.924 175.45 283.692C177.087 282.459 178.279 280.728 178.846 278.758L183.129 263.893C183.696 261.924 184.888 260.192 186.525 258.959C188.162 257.727 190.155 257.061 192.204 257.061H193.237H128.031C125.982 257.061 123.989 257.727 122.352 258.959C120.715 260.192 119.523 261.924 118.955 263.893L114.673 278.758C114.105 280.728 112.913 282.459 111.276 283.692C109.639 284.924 107.646 285.591 105.597 285.591H166.091Z" fill="#E06714"/>
<path d="M128.031 257.061H129.064C130.492 257.061 131.902 257.385 133.187 258.009C134.472 258.632 135.599 259.54 136.483 260.662C137.367 261.785 137.985 263.093 138.29 264.489C138.596 265.885 138.581 267.333 138.246 268.722L136.691 275.186H200.864L202.42 268.722C202.754 267.333 202.769 265.885 202.463 264.489C202.158 263.093 201.54 261.785 200.656 260.662C199.772 259.54 198.645 258.632 197.36 258.009C196.075 257.385 194.665 257.061 193.237 257.061H192.204H128.031Z" fill="#EE781D"/>
<path d="M107.891 241.452L152.886 241.452" stroke="#E06714" stroke-width="4" stroke-miterlimit="10"/>
<path d="M110.979 230.686L155.974 230.686" stroke="#E06714" stroke-width="4" stroke-miterlimit="10"/>
<path d="M114.137 219.82L159.132 219.82" stroke="#E06714" stroke-width="4" stroke-miterlimit="10"/>
<path d="M117.295 208.955H162.29" stroke="#E06714" stroke-width="4" stroke-miterlimit="10"/>
<path d="M120.453 198.09L165.448 198.09" stroke="#E06714" stroke-width="4" stroke-miterlimit="10"/>
<path d="M123.611 187.226H168.605" stroke="#E06714" stroke-width="4" stroke-miterlimit="10"/>
<path d="M68.7583 208.337H90.9668" stroke="#E06714" stroke-width="4" stroke-miterlimit="10"/>
<path d="M70.2822 197.57H92.4907" stroke="#E06714" stroke-width="4" stroke-miterlimit="10"/>
<path d="M71.8411 186.705L94.0496 186.705" stroke="#E06714" stroke-width="4" stroke-miterlimit="10"/>
<path d="M73.3997 175.84H95.6082" stroke="#E06714" stroke-width="4" stroke-miterlimit="10"/>
<path d="M238.716 146.267H221.569C221.238 146.267 220.912 146.18 220.626 146.015C220.339 145.849 220.101 145.611 219.936 145.324C219.77 145.037 219.683 144.712 219.683 144.381C219.683 144.05 219.77 143.724 219.936 143.437L228.509 128.58L237.083 113.722C237.249 113.435 237.487 113.197 237.773 113.031C238.06 112.865 238.385 112.778 238.716 112.778C239.047 112.778 239.372 112.865 239.659 113.031C239.946 113.197 240.184 113.435 240.349 113.722L248.923 128.58L257.497 143.437C257.662 143.724 257.75 144.05 257.75 144.381C257.75 144.712 257.662 145.037 257.497 145.324C257.331 145.611 257.093 145.849 256.807 146.015C256.52 146.18 256.195 146.267 255.864 146.267H238.716Z" fill="#DBE8EC"/>
<path d="M239.66 119.303H237.773V135.261H239.66V119.303Z" fill="#409CB5"/>
<path d="M240.963 141C241.085 139.759 240.179 138.653 238.939 138.53C237.698 138.407 236.593 139.314 236.47 140.555C236.347 141.796 237.253 142.901 238.494 143.024C239.735 143.147 240.84 142.241 240.963 141Z" fill="#409CB5"/>
<path d="M196.817 161.503H280.615" stroke="#4D76B8" stroke-width="3" stroke-miterlimit="10"/>
<path d="M196.817 176.738H280.615" stroke="#4D76B8" stroke-width="3" stroke-miterlimit="10"/>
<path d="M196.817 191.974H280.615" stroke="#4D76B8" stroke-width="3" stroke-miterlimit="10"/>
<path d="M196.817 207.209H280.615" stroke="#4D76B8" stroke-width="3" stroke-miterlimit="10"/>
<path d="M196.817 97.5439H280.615" stroke="#4D76B8" stroke-width="3" stroke-miterlimit="10"/>
<path d="M276.738 45.4092H200.694C198.553 45.4092 196.817 47.1458 196.817 49.2881V72.7175C196.817 74.8597 198.553 76.5964 200.694 76.5964H276.738C278.879 76.5964 280.615 74.8597 280.615 72.7175V49.2881C280.615 47.1458 278.879 45.4092 276.738 45.4092Z" fill="#EE781D"/>
<path d="M129.996 143.729H149.588" stroke="#B9D4DB" stroke-width="3" stroke-miterlimit="10" stroke-linecap="round"/>
<path d="M129.996 149.379H149.588" stroke="#B9D4DB" stroke-width="3" stroke-miterlimit="10" stroke-linecap="round"/>
<path d="M129.996 155.029H149.588" stroke="#B9D4DB" stroke-width="3" stroke-miterlimit="10" stroke-linecap="round"/>
<path d="M328.23 48.9907H347.822" stroke="#B9D4DB" stroke-width="3" stroke-miterlimit="10" stroke-linecap="round"/>
<path d="M328.23 54.6406H347.822" stroke="#B9D4DB" stroke-width="3" stroke-miterlimit="10" stroke-linecap="round"/>
<path d="M328.23 60.29H347.822" stroke="#B9D4DB" stroke-width="3" stroke-miterlimit="10" stroke-linecap="round"/>
<path d="M328.23 251.79H347.822" stroke="#B9D4DB" stroke-width="3" stroke-miterlimit="10" stroke-linecap="round"/>
<path d="M328.23 257.439H347.822" stroke="#B9D4DB" stroke-width="3" stroke-miterlimit="10" stroke-linecap="round"/>
<path d="M328.23 263.089H347.822" stroke="#B9D4DB" stroke-width="3" stroke-miterlimit="10" stroke-linecap="round"/>
<path d="M57.9452 287.694C62.5701 287.694 66.3194 283.943 66.3194 279.316C66.3194 274.689 62.5701 270.938 57.9452 270.938C53.3203 270.938 49.571 274.689 49.571 279.316C49.571 283.943 53.3203 287.694 57.9452 287.694Z" fill="#B9D4DB"/>
<path d="M46.7797 263.646C49.1778 263.646 51.1218 261.701 51.1218 259.301C51.1218 256.902 49.1778 254.957 46.7797 254.957C44.3815 254.957 42.4375 256.902 42.4375 259.301C42.4375 261.701 44.3815 263.646 46.7797 263.646Z" fill="#B9D4DB"/>
<path d="M75.1835 269.852C78.6094 269.852 81.3866 267.073 81.3866 263.646C81.3866 260.218 78.6094 257.439 75.1835 257.439C71.7577 257.439 68.9805 260.218 68.9805 263.646C68.9805 267.073 71.7577 269.852 75.1835 269.852Z" fill="#B9D4DB"/>
<path d="M349.305 141.164C354.807 141.164 359.268 136.701 359.268 131.195C359.268 125.69 354.807 121.227 349.305 121.227C343.802 121.227 339.341 125.69 339.341 131.195C339.341 136.701 343.802 141.164 349.305 141.164Z" fill="#B9D4DB"/>
<path d="M330.266 129.287C333.132 129.287 335.455 126.963 335.455 124.095C335.455 121.227 333.132 118.902 330.266 118.902C327.399 118.902 325.076 121.227 325.076 124.095C325.076 126.963 327.399 129.287 330.266 129.287Z" fill="#B9D4DB"/>
<path d="M335.033 109.44C336.686 109.44 338.027 108.099 338.027 106.444C338.027 104.79 336.686 103.449 335.033 103.449C333.379 103.449 332.039 104.79 332.039 106.444C332.039 108.099 333.379 109.44 335.033 109.44Z" fill="#B9D4DB"/>
<path d="M351.605 115.743C355.568 115.743 358.781 112.528 358.781 108.563C358.781 104.597 355.568 101.383 351.605 101.383C347.641 101.383 344.428 104.597 344.428 108.563C344.428 112.528 347.641 115.743 351.605 115.743Z" fill="#B9D4DB"/>
<path d="M118.727 83.2714C124.23 83.2714 128.691 78.8083 128.691 73.3027C128.691 67.7971 124.23 63.334 118.727 63.334C113.224 63.334 108.763 67.7971 108.763 73.3027C108.763 78.8083 113.224 83.2714 118.727 83.2714Z" fill="#B9D4DB"/>
<path d="M119.131 58.1702C121.998 58.1702 124.321 55.8455 124.321 52.9777C124.321 50.1099 121.998 47.7852 119.131 47.7852C116.265 47.7852 113.941 50.1099 113.941 52.9777C113.941 55.8455 116.265 58.1702 119.131 58.1702Z" fill="#B9D4DB"/>
<path d="M153.699 60.5059C156.18 60.5059 158.191 58.4938 158.191 56.0117C158.191 53.5297 156.18 51.5176 153.699 51.5176C151.218 51.5176 149.207 53.5297 149.207 56.0117C149.207 58.4938 151.218 60.5059 153.699 60.5059Z" fill="#B9D4DB"/>
<path d="M137.357 54.6398C139.011 54.6398 140.351 53.2988 140.351 51.6446C140.351 49.9904 139.011 48.6494 137.357 48.6494C135.704 48.6494 134.364 49.9904 134.364 51.6446C134.364 53.2988 135.704 54.6398 137.357 54.6398Z" fill="#B9D4DB"/>
<path d="M140.836 75.1738C144.8 75.1738 148.013 71.9592 148.013 67.9937C148.013 64.0282 144.8 60.8135 140.836 60.8135C136.873 60.8135 133.66 64.0282 133.66 67.9937C133.66 71.9592 136.873 75.1738 140.836 75.1738Z" fill="#B9D4DB"/>
</svg>
