<svg width="420" height="331" viewBox="0 0 420 331" fill="none" xmlns="http://www.w3.org/2000/svg">
<path d="M222.834 271.349C284.791 271.349 335.018 221.097 335.018 159.108C335.018 97.1192 284.791 46.8672 222.834 46.8672C160.877 46.8672 110.65 97.1192 110.65 159.108C110.65 221.097 160.877 271.349 222.834 271.349Z" fill="#DBE8EC"/>
<path d="M364.369 160.991V149.231C364.369 146.988 363.478 144.837 361.893 143.251C360.308 141.666 358.159 140.775 355.917 140.775H326.087C324.977 140.775 323.878 140.556 322.853 140.131C321.828 139.706 320.896 139.083 320.111 138.298C319.326 137.513 318.704 136.581 318.279 135.555C317.854 134.529 317.636 133.43 317.636 132.319V120.559C317.636 119.449 317.854 118.349 318.279 117.323C318.704 116.297 319.326 115.365 320.111 114.58C320.896 113.795 321.828 113.172 322.853 112.747C323.878 112.322 324.977 112.103 326.087 112.103H327.029C329.27 112.103 331.42 111.212 333.005 109.627C334.59 108.041 335.48 105.89 335.48 103.648V91.8873C335.48 89.6447 334.59 87.494 333.005 85.9082C331.42 84.3225 329.27 83.4316 327.029 83.4316H112.566C110.324 83.4316 108.175 84.3225 106.59 85.9082C105.005 87.494 104.115 89.6447 104.115 91.8873V103.648C104.115 105.89 105.005 108.041 106.59 109.627C108.175 111.212 110.324 112.103 112.566 112.103C113.676 112.103 114.775 112.322 115.8 112.747C116.825 113.172 117.757 113.795 118.542 114.58C119.327 115.365 119.949 116.297 120.374 117.323C120.799 118.349 121.017 119.449 121.017 120.559V132.319C121.017 133.43 120.799 134.529 120.374 135.555C119.949 136.581 119.327 137.513 118.542 138.298C117.757 139.083 116.825 139.706 115.8 140.131C114.775 140.556 113.676 140.775 112.566 140.775H79.8838C77.6424 140.775 75.4927 141.666 73.9078 143.251C72.3229 144.837 71.4325 146.988 71.4325 149.231V160.991C71.4325 162.101 71.6511 163.201 72.0758 164.227C72.5005 165.253 73.123 166.185 73.9078 166.97C74.6926 167.755 75.6243 168.378 76.6496 168.803C77.675 169.228 78.774 169.447 79.8838 169.447H92.7078C94.9492 169.447 97.0988 170.337 98.6837 171.923C100.269 173.509 101.159 175.66 101.159 177.902V189.663C101.159 190.773 100.94 191.872 100.516 192.898C100.091 193.924 99.4685 194.856 98.6837 195.642C97.899 196.427 96.9673 197.05 95.9419 197.475C94.9166 197.899 93.8176 198.118 92.7078 198.118H92.6767C90.4353 198.118 88.2857 199.009 86.7008 200.595C85.1159 202.181 84.2255 204.331 84.2254 206.574V218.334C84.2254 219.445 84.444 220.544 84.8688 221.57C85.2935 222.596 85.916 223.528 86.7008 224.313C87.4856 225.098 88.4172 225.721 89.4426 226.146C90.468 226.571 91.5669 226.79 92.6768 226.79H94.5321C96.7736 226.79 98.9232 227.681 100.508 229.266C102.093 230.852 102.983 233.003 102.983 235.245V247.006C102.983 249.248 102.093 251.399 100.508 252.985C98.9232 254.571 96.7736 255.461 94.5321 255.461H64.0824C62.9726 255.461 61.8736 255.68 60.8483 256.105C59.8229 256.53 58.8912 257.153 58.1064 257.938C57.3217 258.723 56.6991 259.655 56.2744 260.681C55.8497 261.707 55.6311 262.807 55.6311 263.917V275.677C55.6311 276.788 55.8497 277.887 56.2744 278.913C56.6991 279.939 57.3217 280.871 58.1064 281.656C58.8912 282.442 59.8229 283.064 60.8483 283.489C61.8736 283.914 62.9726 284.133 64.0824 284.133H331.566C333.808 284.133 335.957 283.242 337.542 281.656C339.127 280.071 340.018 277.92 340.018 275.677V263.917C340.018 261.675 339.127 259.524 337.542 257.938C335.957 256.352 333.808 255.461 331.566 255.461H324.238C321.997 255.461 319.847 254.571 318.262 252.985C316.678 251.399 315.787 249.248 315.787 247.006V235.245C315.787 233.003 316.678 230.852 318.262 229.266C319.847 227.681 321.997 226.79 324.238 226.79H341.517C343.758 226.79 345.908 225.899 347.493 224.313C349.077 222.727 349.968 220.577 349.968 218.334V206.574C349.968 204.331 349.077 202.181 347.493 200.595C345.908 199.009 343.758 198.118 341.517 198.118H336.275C335.165 198.118 334.066 197.899 333.041 197.475C332.016 197.05 331.084 196.427 330.299 195.642C329.514 194.856 328.892 193.924 328.467 192.898C328.042 191.872 327.824 190.773 327.824 189.663V177.902C327.824 175.66 328.714 173.509 330.299 171.923C331.884 170.337 334.034 169.447 336.275 169.447H355.917C358.159 169.447 360.308 168.556 361.893 166.97C363.478 165.384 364.369 163.233 364.369 160.991Z" fill="#DBE8EC"/>
<path d="M105.83 166.183H125.422" stroke="#B9D4DB" stroke-width="3" stroke-miterlimit="10" stroke-linecap="round"/>
<path d="M105.83 171.833H125.422" stroke="#B9D4DB" stroke-width="3" stroke-miterlimit="10" stroke-linecap="round"/>
<path d="M105.83 177.482H125.422" stroke="#B9D4DB" stroke-width="3" stroke-miterlimit="10" stroke-linecap="round"/>
<path d="M285.141 212.747H304.733" stroke="#B9D4DB" stroke-width="3" stroke-miterlimit="10" stroke-linecap="round"/>
<path d="M285.141 218.397H304.733" stroke="#B9D4DB" stroke-width="3" stroke-miterlimit="10" stroke-linecap="round"/>
<path d="M285.141 224.047H304.733" stroke="#B9D4DB" stroke-width="3" stroke-miterlimit="10" stroke-linecap="round"/>
<path d="M198.653 66.8105H218.245" stroke="#B9D4DB" stroke-width="3" stroke-miterlimit="10" stroke-linecap="round"/>
<path d="M198.653 72.46H218.245" stroke="#B9D4DB" stroke-width="3" stroke-miterlimit="10" stroke-linecap="round"/>
<path d="M198.653 78.1099H218.245" stroke="#B9D4DB" stroke-width="3" stroke-miterlimit="10" stroke-linecap="round"/>
<path d="M253.578 276.724C258.203 276.724 261.952 272.973 261.952 268.345C261.952 263.718 258.203 259.967 253.578 259.967C248.953 259.967 245.204 263.718 245.204 268.345C245.204 272.973 248.953 276.724 253.578 276.724Z" fill="#B9D4DB"/>
<path d="M242.412 252.675C244.811 252.675 246.755 250.73 246.755 248.331C246.755 245.931 244.811 243.986 242.412 243.986C240.014 243.986 238.07 245.931 238.07 248.331C238.07 250.73 240.014 252.675 242.412 252.675Z" fill="#B9D4DB"/>
<path d="M270.816 258.881C274.242 258.881 277.019 256.103 277.019 252.675C277.019 249.247 274.242 246.469 270.816 246.469C267.39 246.469 264.613 249.247 264.613 252.675C264.613 256.103 267.39 258.881 270.816 258.881Z" fill="#B9D4DB"/>
<path d="M134.665 105.061C140.168 105.061 144.629 100.598 144.629 95.0922C144.629 89.5867 140.168 85.1235 134.665 85.1235C129.162 85.1235 124.701 89.5867 124.701 95.0922C124.701 100.598 129.162 105.061 134.665 105.061Z" fill="#B9D4DB"/>
<path d="M115.626 93.1844C118.492 93.1844 120.816 90.8596 120.816 87.9918C120.816 85.1241 118.492 82.7993 115.626 82.7993C112.759 82.7993 110.436 85.1241 110.436 87.9918C110.436 90.8596 112.759 93.1844 115.626 93.1844Z" fill="#B9D4DB"/>
<path d="M120.393 73.3361C122.047 73.3361 123.387 71.9951 123.387 70.3409C123.387 68.6867 122.047 67.3457 120.393 67.3457C118.74 67.3457 117.399 68.6867 117.399 70.3409C117.399 71.9951 118.74 73.3361 120.393 73.3361Z" fill="#B9D4DB"/>
<path d="M136.965 79.6401C140.928 79.6401 144.141 76.4255 144.141 72.46C144.141 68.4945 140.928 65.2798 136.965 65.2798C133.001 65.2798 129.788 68.4945 129.788 72.46C129.788 76.4255 133.001 79.6401 136.965 79.6401Z" fill="#B9D4DB"/>
<path d="M312.74 131.093C318.243 131.093 322.704 126.63 322.704 121.124C322.704 115.619 318.243 111.156 312.74 111.156C307.237 111.156 302.776 115.619 302.776 121.124C302.776 126.63 307.237 131.093 312.74 131.093Z" fill="#B9D4DB"/>
<path d="M292.452 127.441C295.318 127.441 297.642 125.116 297.642 122.249C297.642 119.381 295.318 117.056 292.452 117.056C289.586 117.056 287.262 119.381 287.262 122.249C287.262 125.116 289.586 127.441 292.452 127.441Z" fill="#B9D4DB"/>
<path d="M292.879 92.0273C295.359 92.0273 297.37 90.0152 297.37 87.5332C297.37 85.0512 295.359 83.0391 292.879 83.0391C290.398 83.0391 288.387 85.0512 288.387 87.5332C288.387 90.0152 290.398 92.0273 292.879 92.0273Z" fill="#B9D4DB"/>
<path d="M289.754 107.16C291.408 107.16 292.748 105.819 292.748 104.165C292.748 102.511 291.408 101.17 289.754 101.17C288.101 101.17 286.76 102.511 286.76 104.165C286.76 105.819 288.101 107.16 289.754 107.16Z" fill="#B9D4DB"/>
<path d="M305.787 106.646C309.75 106.646 312.963 103.431 312.963 99.4653C312.963 95.4998 309.75 92.2852 305.787 92.2852C301.823 92.2852 298.61 95.4998 298.61 99.4653C298.61 103.431 301.823 106.646 305.787 106.646Z" fill="#B9D4DB"/>
<path d="M241.759 144.735C254.915 144.735 265.579 134.065 265.579 120.902C265.579 107.74 254.915 97.0698 241.759 97.0698C228.603 97.0698 217.939 107.74 217.939 120.902C217.939 134.065 228.603 144.735 241.759 144.735Z" fill="#D62828"/>
<path d="M255.882 112.84C257.945 112.84 259.618 111.166 259.618 109.101C259.618 107.037 257.945 105.363 255.882 105.363C253.818 105.363 252.145 107.037 252.145 109.101C252.145 111.166 253.818 112.84 255.882 112.84Z" fill="#F9AE2B"/>
<path d="M318.612 178.991C325.352 165.267 292.812 135.457 245.93 112.409C199.049 89.3609 155.58 81.8024 148.839 95.5266C142.099 109.251 174.64 139.061 221.521 162.109C268.403 185.157 311.872 192.715 318.612 178.991Z" fill="#409CB5"/>
<path d="M240.986 122.475C281.978 142.627 312.004 167.949 314.397 183.168C316.204 182.251 317.678 180.79 318.612 178.991C325.353 165.267 292.812 135.457 245.93 112.409C199.048 89.3612 155.58 81.8027 148.84 95.527C147.987 97.3657 147.732 99.4256 148.11 101.417C161.614 94.0128 199.995 102.323 240.986 122.475Z" fill="#3086A3"/>
<path d="M262.706 163.808C265.394 158.335 252.419 146.449 233.726 137.259C215.032 128.069 197.7 125.055 195.012 130.528C192.325 136 205.3 147.886 223.993 157.076C242.686 166.266 260.019 169.28 262.706 163.808Z" fill="#F9AE2B"/>
<path d="M231.755 141.273C248.099 149.308 260.072 159.404 261.026 165.473C261.746 165.107 262.334 164.525 262.706 163.807C265.394 158.335 252.419 146.449 233.726 137.259C215.033 128.069 197.7 125.055 195.013 130.527C194.673 131.261 194.571 132.082 194.722 132.876C200.106 129.924 215.41 133.237 231.755 141.273Z" fill="#EA9918"/>
<path d="M222.803 278.884H74.0933L194.722 132.876L261.721 165.814L222.803 278.884Z" fill="url(#paint0_linear_3207_1898)"/>
<defs>
<linearGradient id="paint0_linear_3207_1898" x1="248.943" y1="158.271" x2="127.821" y2="301.639" gradientUnits="userSpaceOnUse">
<stop stop-color="#F9AE2B"/>
<stop offset="1" stop-color="white" stop-opacity="0"/>
</linearGradient>
</defs>
</svg>
