<svg width="32" height="33" viewBox="0 0 32 33" fill="none" xmlns="http://www.w3.org/2000/svg">
<path d="M16.0031 0.416321C12.8386 0.416321 9.74513 1.3547 7.11394 3.1128C4.48278 4.8709 2.43198 7.36975 1.22099 10.2934C0.00998367 13.217 -0.306868 16.434 0.310493 19.5377C0.927859 22.6415 2.45172 25.4923 4.68934 27.7298C6.92698 29.9675 9.77795 31.4914 12.8816 32.1089C15.9853 32.7262 19.2024 32.4093 22.1261 31.1985C25.0497 29.9873 27.5483 27.9366 29.3066 25.3054C31.0647 22.6742 32.0031 19.5808 32.0031 16.4163C32.0031 12.1728 30.3174 8.10316 27.3168 5.10261C24.3161 2.10202 20.2465 0.416321 16.0031 0.416321ZM25.8315 18.7546C25.8315 19.0746 24.387 19.1203 24.387 19.4403C24.387 19.7603 25.8156 20.1946 25.8156 20.6358C25.8156 21.1751 22.8716 21.2551 22.8716 21.7946C22.8716 22.3706 25.1047 22.1923 25.1047 22.8163C25.1047 23.5523 19.4956 23.2094 19.4956 23.9751C19.4956 24.2676 20.2134 24.3889 21.1117 24.4849C21.6054 24.5397 21.4978 24.7819 21.2169 24.9421C19.6465 25.9001 17.8426 26.4071 16.0031 26.4071C14.1635 26.4071 12.3596 25.9001 10.7893 24.9421C10.5105 24.7706 10.4008 24.5284 10.8945 24.4849C11.7928 24.3889 12.5128 24.2563 12.5128 23.9751C12.5128 23.2094 6.90133 23.5523 6.90133 22.8163C6.90133 22.1923 9.13678 22.3591 9.13678 21.7946C9.13678 21.2551 6.19052 21.1751 6.19052 20.6358C6.19052 20.1946 7.62138 19.7671 7.62138 19.4403C7.62138 19.1134 6.1745 19.0768 6.1745 18.7546C6.1745 18.4323 7.23052 18.2243 7.23052 17.9957C7.23052 17.5637 6.00306 18.35 6.00306 16.4163C6.00306 13.7641 7.05668 11.2206 8.93203 9.34524C10.8074 7.46988 13.3509 6.4163 16.0031 6.4163C18.6552 6.4163 21.1988 7.46988 23.0742 9.34524C24.9495 11.2206 26.003 13.7641 26.003 16.4163C26.003 18.35 24.7757 17.5592 24.7757 17.9957C24.7757 18.2243 25.8315 18.4094 25.8315 18.7546Z" fill="url(#paint0_linear_3012_1505)"/>
<defs>
<linearGradient id="paint0_linear_3012_1505" x1="0.00305176" y1="0.416321" x2="35.8832" y2="5.60989" gradientUnits="userSpaceOnUse">
<stop stop-color="#C1A156"/>
<stop offset="1" stop-color="#0D0B18"/>
</linearGradient>
</defs>
</svg>
